<svg width="150" height="44" viewBox="0 0 150 44" fill="none" xmlns="http://www.w3.org/2000/svg">
<g clip-path="url(#clip0_4115_5117)">
<path d="M144.444 44H5.55556C2.44444 44 0 41.58 0 38.5V5.5C0 2.42 2.44444 0 5.55556 0H144.444C147.556 0 150 2.42 150 5.5V38.5C150 41.58 147.556 44 144.444 44Z" fill="black"/>
<path d="M75.8648 23.9797C73.2053 23.9797 71.0998 25.959 71.0998 28.7081C71.0998 31.3471 73.2053 33.4364 75.8648 33.4364C78.5244 33.4364 80.6299 31.4571 80.6299 28.7081C80.6299 25.8491 78.5244 23.9797 75.8648 23.9797ZM75.8648 31.4571C74.4242 31.4571 73.2053 30.2475 73.2053 28.5981C73.2053 26.9487 74.4242 25.7391 75.8648 25.7391C77.3054 25.7391 78.5244 26.8387 78.5244 28.5981C78.5244 30.2475 77.3054 31.4571 75.8648 31.4571ZM65.559 23.9797C62.8995 23.9797 60.794 25.959 60.794 28.7081C60.794 31.3471 62.8995 33.4364 65.559 33.4364C68.2186 33.4364 70.3241 31.4571 70.3241 28.7081C70.3241 25.8491 68.2186 23.9797 65.559 23.9797ZM65.559 31.4571C64.1185 31.4571 62.8995 30.2475 62.8995 28.5981C62.8995 26.9487 64.1185 25.7391 65.559 25.7391C66.9996 25.7391 68.2186 26.8387 68.2186 28.5981C68.2186 30.2475 66.9996 31.4571 65.559 31.4571ZM53.2586 25.4092V27.3885H58.0236C57.9128 28.4881 57.4696 29.3678 56.9155 29.9176C56.2506 30.5774 55.1425 31.3471 53.2586 31.3471C50.2666 31.3471 48.0503 29.0379 48.0503 26.069C48.0503 23.1 50.3774 20.7908 53.2586 20.7908C54.81 20.7908 56.029 21.4506 56.9155 22.2203L58.3561 20.7908C57.1371 19.6912 55.5857 18.8115 53.3694 18.8115C49.3801 18.8115 45.9448 22.1104 45.9448 26.069C45.9448 30.0276 49.3801 33.3264 53.3694 33.3264C55.5857 33.3264 57.1371 32.6667 58.4669 31.2372C59.7967 29.9176 60.2399 28.0483 60.2399 26.6188C60.2399 26.1789 60.2399 25.7391 60.1291 25.4092H53.2586ZM103.569 26.9487C103.125 25.8491 102.017 23.9797 99.5792 23.9797C97.1413 23.9797 95.1466 25.8491 95.1466 28.7081C95.1466 31.3471 97.1413 33.4364 99.8008 33.4364C101.906 33.4364 103.236 32.1169 103.679 31.3471L102.128 30.2475C101.574 31.0173 100.909 31.5671 99.8008 31.5671C98.6927 31.5671 98.0278 31.1272 97.4737 30.1376L103.79 27.4985L103.569 26.9487ZM97.1413 28.4881C97.1413 26.7288 98.5819 25.7391 99.5792 25.7391C100.355 25.7391 101.131 26.1789 101.352 26.7288L97.1413 28.4881ZM91.933 32.9966H94.0384V19.2514H91.933V32.9966ZM88.6085 24.9694C88.0544 24.4196 87.1679 23.8698 86.0598 23.8698C83.7327 23.8698 81.5164 25.959 81.5164 28.5981C81.5164 31.2372 83.6219 33.2165 86.0598 33.2165C87.1679 33.2165 88.0545 32.6667 88.4977 32.1169H88.6085V32.7766C88.6085 34.536 87.6112 35.5257 86.0598 35.5257C84.8408 35.5257 83.9543 34.646 83.7327 33.8763L81.9596 34.646C82.5137 35.8556 83.8435 37.395 86.1706 37.395C88.6085 37.395 90.6032 35.9655 90.6032 32.5567V24.1996H88.6085V24.9694ZM86.1706 31.4571C84.73 31.4571 83.511 30.2475 83.511 28.5981C83.511 26.9487 84.73 25.7391 86.1706 25.7391C87.6112 25.7391 88.7193 26.9487 88.7193 28.5981C88.7193 30.2475 87.6112 31.4571 86.1706 31.4571ZM113.209 19.2514H108.223V32.9966H110.328V27.8284H113.209C115.537 27.8284 117.753 26.1789 117.753 23.5399C117.753 20.9008 115.537 19.2514 113.209 19.2514ZM113.32 25.8491H110.328V21.1207H113.32C114.872 21.1207 115.758 22.4403 115.758 23.4299C115.647 24.6395 114.761 25.8491 113.32 25.8491ZM126.064 23.8698C124.513 23.8698 122.961 24.5295 122.407 25.959L124.291 26.7288C124.734 25.959 125.399 25.7391 126.175 25.7391C127.283 25.7391 128.28 26.3989 128.391 27.4985V27.6084C128.059 27.3885 127.172 27.0586 126.286 27.0586C124.291 27.0586 122.296 28.1583 122.296 30.1376C122.296 32.0069 123.958 33.2165 125.731 33.2165C127.172 33.2165 127.837 32.5567 128.391 31.8969H128.502V32.9966H130.497V27.7184C130.275 25.2993 128.391 23.8698 126.064 23.8698ZM125.842 31.4571C125.177 31.4571 124.18 31.1272 124.18 30.2475C124.18 29.1479 125.399 28.818 126.396 28.818C127.283 28.818 127.726 29.0379 128.28 29.2579C128.059 30.5774 126.95 31.4571 125.842 31.4571ZM137.478 24.1996L135.151 30.1376H135.04L132.602 24.1996H130.386L134.043 32.5567L131.937 37.1751H134.043L139.694 24.1996H137.478ZM118.861 32.9966H120.966V19.2514H118.861V32.9966Z" fill="white"/>
<g clip-path="url(#clip1_4115_5117)">
<path d="M22.7751 21.4004L11.2251 33.4754C11.6001 34.7504 12.8001 35.7254 14.2251 35.7254C14.8251 35.7254 15.3501 35.5754 15.8001 35.2754L28.8501 27.8504L22.7751 21.4004Z" fill="#EA4335"/>
<path d="M34.4748 19.3002L28.8498 16.0752L22.5498 21.6252L28.9248 27.8502L34.5498 24.7002C35.5248 24.1752 36.1998 23.1252 36.1998 22.0002C36.1248 20.8752 35.4498 19.8252 34.4748 19.3002Z" fill="#FBBC04"/>
<path d="M11.2249 10.5254C11.1499 10.7504 11.1499 11.0504 11.1499 11.3504V32.7254C11.1499 33.0254 11.1499 33.2504 11.2249 33.5504L23.2249 21.7754L11.2249 10.5254Z" fill="#4285F4"/>
<path d="M22.8501 22.0004L28.8501 16.0754L15.8751 8.72539C15.4251 8.42539 14.8251 8.27539 14.2251 8.27539C12.8001 8.27539 11.5251 9.25039 11.2251 10.5254L22.8501 22.0004Z" fill="#34A853"/>
</g>
<path d="M46.0225 14.2213V7.51401H48.002C48.5944 7.51401 49.1192 7.64607 49.5765 7.91018C50.0368 8.1743 50.3929 8.54897 50.6445 9.03421C50.8962 9.51944 51.022 10.0753 51.022 10.7018V11.0381C51.022 11.6738 50.8947 12.2328 50.6399 12.7149C50.3883 13.1971 50.0276 13.5687 49.5581 13.8297C49.0916 14.0908 48.556 14.2213 47.9514 14.2213H46.0225ZM47.1872 8.45377V13.2908H47.9468C48.5575 13.2908 49.0256 13.1004 49.3509 12.7195C49.6793 12.3356 49.8466 11.7859 49.8527 11.0704V10.6972C49.8527 9.96936 49.6946 9.41349 49.3785 9.0296C49.0624 8.64571 48.6036 8.45377 48.002 8.45377H47.1872Z" fill="white"/>
<path d="M53.4113 14.2213H52.2512V7.51401H53.4113V14.2213Z" fill="white"/>
<path d="M58.3464 12.4938C58.3464 12.199 58.2421 11.9717 58.0334 11.812C57.8278 11.6523 57.4549 11.4911 56.9147 11.3283C56.3745 11.1656 55.9449 10.9844 55.6257 10.7847C55.0149 10.4008 54.7096 9.90026 54.7096 9.28297C54.7096 8.74245 54.929 8.29714 55.3679 7.94703C55.8098 7.59693 56.3822 7.42188 57.085 7.42188C57.5515 7.42188 57.9674 7.50787 58.3326 7.67985C58.6978 7.85183 58.9848 8.09752 59.1935 8.41691C59.4022 8.73324 59.5066 9.08488 59.5066 9.47184H58.3464C58.3464 9.12173 58.2359 8.8484 58.015 8.65185C57.7971 8.45223 57.484 8.35242 57.0758 8.35242C56.6953 8.35242 56.3991 8.4338 56.1873 8.59657C55.9786 8.75934 55.8743 8.9866 55.8743 9.27836C55.8743 9.52405 55.9878 9.72981 56.2149 9.89565C56.4421 10.0584 56.8165 10.2181 57.3382 10.3747C57.86 10.5283 58.2789 10.7049 58.595 10.9045C58.9112 11.1011 59.1429 11.3283 59.2902 11.5863C59.4375 11.8412 59.5112 12.1406 59.5112 12.4846C59.5112 13.0435 59.2963 13.4888 58.8667 13.8205C58.44 14.1491 57.86 14.3134 57.1265 14.3134C56.6416 14.3134 56.195 14.2244 55.7868 14.0463C55.3817 13.8651 55.0656 13.6163 54.8385 13.3C54.6144 12.9837 54.5024 12.6151 54.5024 12.1944H55.6671C55.6671 12.5752 55.7929 12.87 56.0446 13.0789C56.2963 13.2877 56.6569 13.3921 57.1265 13.3921C57.5316 13.3921 57.8354 13.3107 58.038 13.148C58.2436 12.9821 58.3464 12.7641 58.3464 12.4938Z" fill="white"/>
<path d="M61.6979 11.7291V14.2213H60.5332V7.51401H63.0974C63.8463 7.51401 64.4401 7.70902 64.879 8.09905C65.321 8.48908 65.5419 9.00503 65.5419 9.64689C65.5419 10.3041 65.3256 10.8154 64.8928 11.1809C64.4632 11.5464 63.8601 11.7291 63.0836 11.7291H61.6979ZM61.6979 10.794H63.0974C63.5117 10.794 63.8279 10.6972 64.0458 10.5037C64.2637 10.3072 64.3726 10.0246 64.3726 9.65611C64.3726 9.29371 64.2621 9.00503 64.0412 8.79005C63.8202 8.572 63.5163 8.45991 63.1296 8.45377H61.6979V10.794Z" fill="white"/>
<path d="M71.9134 11.0427C71.9134 11.6999 71.7998 12.2773 71.5727 12.7748C71.3456 13.2693 71.0203 13.6501 70.5968 13.9173C70.1763 14.1814 69.6914 14.3134 69.142 14.3134C68.5988 14.3134 68.1139 14.1814 67.6872 13.9173C67.2637 13.6501 66.9353 13.2708 66.7021 12.7794C66.4719 12.288 66.3553 11.7214 66.3522 11.0796V10.7018C66.3522 10.0477 66.4673 9.4703 66.6975 8.96971C66.9307 8.46912 67.2576 8.08677 67.678 7.82265C68.1016 7.55547 68.5865 7.42188 69.1328 7.42188C69.6791 7.42188 70.1625 7.55393 70.5829 7.81805C71.0065 8.07909 71.3333 8.45684 71.5635 8.95129C71.7937 9.44266 71.9103 10.0154 71.9134 10.6696V11.0427ZM70.7487 10.6926C70.7487 9.9494 70.6075 9.37971 70.3251 8.98353C70.0459 8.58736 69.6484 8.38927 69.1328 8.38927C68.6295 8.38927 68.2351 8.58736 67.9497 8.98353C67.6673 9.37663 67.5231 9.93404 67.5169 10.6558V11.0427C67.5169 11.7798 67.6596 12.3495 67.9451 12.7518C68.2335 13.1541 68.6325 13.3553 69.142 13.3553C69.6576 13.3553 70.0535 13.1587 70.3297 12.7656C70.609 12.3725 70.7487 11.7982 70.7487 11.0427V10.6926Z" fill="white"/>
<path d="M78.3907 14.2213H77.226L74.2382 9.46263V14.2213H73.0735V7.51401H74.2382L77.2352 12.2911V7.51401H78.3907V14.2213Z" fill="white"/>
<path d="M80.9964 14.2213H79.8363V7.51401H80.9964V14.2213Z" fill="white"/>
<path d="M82.4281 14.2213V7.51401H84.7254C85.4834 7.51401 86.0604 7.66603 86.4563 7.97007C86.8523 8.27411 87.0502 8.7271 87.0502 9.32903C87.0502 9.63614 86.9673 9.91254 86.8016 10.1582C86.6359 10.4039 86.3934 10.5943 86.0742 10.7295C86.4364 10.8277 86.7157 11.0135 86.9121 11.2869C87.1116 11.5571 87.2113 11.8827 87.2113 12.2635C87.2113 12.8931 87.0088 13.3768 86.6037 13.7146C86.2016 14.0524 85.6246 14.2213 84.8727 14.2213H82.4281ZM83.5929 11.1947V13.2908H84.8865C85.2517 13.2908 85.5371 13.2002 85.7428 13.019C85.9484 12.8378 86.0512 12.5859 86.0512 12.2635C86.0512 11.5663 85.6952 11.2101 84.9832 11.1947H83.5929ZM83.5929 10.3379H84.7346C85.0967 10.3379 85.3791 10.2565 85.5816 10.0937C85.7873 9.9279 85.8901 9.69449 85.8901 9.39353C85.8901 9.06185 85.7949 8.8223 85.6047 8.67489C85.4174 8.52747 85.1244 8.45377 84.7254 8.45377H83.5929V10.3379Z" fill="white"/>
<path d="M89.5408 13.2908H92.5838V14.2213H88.3761V7.51401H89.5408V13.2908Z" fill="white"/>
<path d="M97.3946 11.227H94.6416V13.2908H97.8596V14.2213H93.4769V7.51401H97.8274V8.45377H94.6416V10.3056H97.3946V11.227Z" fill="white"/>
<path d="M105.074 11.227H102.321V13.2908H105.538V14.2213H101.156V7.51401H105.506V8.45377H102.321V10.3056H105.074V11.227Z" fill="white"/>
<path d="M111.804 14.2213H110.639L107.652 9.46263V14.2213H106.487V7.51401H107.652L110.649 12.2911V7.51401H111.804V14.2213Z" fill="white"/>
</g>
<defs>
<clipPath id="clip0_4115_5117">
<rect width="150" height="44" fill="white"/>
</clipPath>
<clipPath id="clip1_4115_5117">
<rect width="30" height="30" fill="white" transform="translate(8 7)"/>
</clipPath>
</defs>
</svg>
