<svg width="34" height="34" viewBox="0 0 34 34" fill="none" xmlns="http://www.w3.org/2000/svg">
<path d="M17.0029 29.8078C13.5179 29.8078 13.1071 29.7894 11.7471 29.7299C10.6865 29.695 9.63971 29.4794 8.65168 29.0924C6.9422 28.4272 5.59046 27.0749 4.92585 25.3652C4.5537 24.3736 4.35297 23.3259 4.33226 22.2669C4.25293 20.9098 4.25293 20.4649 4.25293 17.0068C4.25293 13.5119 4.27135 13.1039 4.33226 11.751C4.35342 10.6935 4.55414 9.64726 4.92585 8.657C5.58974 6.945 6.94368 5.59158 8.65593 4.92834C9.64568 4.55462 10.6922 4.35337 11.7499 4.33334C13.1028 4.25684 13.5477 4.25684 17.0029 4.25684C20.5163 4.25684 20.92 4.27525 22.2588 4.33334C23.3193 4.35355 24.3685 4.55477 25.3613 4.92834C27.073 5.59233 28.4267 6.94549 29.0913 8.657C29.4698 9.66169 29.6716 10.7243 29.6878 11.7978C29.7671 13.1549 29.7671 13.5983 29.7671 17.055C29.7671 20.5117 29.7473 20.965 29.6878 22.3066C29.6667 23.3665 29.4655 24.4152 29.0928 25.4077C28.4264 27.1186 27.0727 28.4713 25.3613 29.1363C24.3699 29.5078 23.3228 29.7085 22.2644 29.7299C20.9115 29.8078 20.4681 29.8078 17.0029 29.8078ZM16.9548 6.49942C13.4896 6.49942 13.1298 6.51642 11.7768 6.57734C10.9693 6.58803 10.1696 6.73705 9.41243 7.01792C8.29433 7.44577 7.40958 8.32691 6.97718 9.44325C6.69415 10.2087 6.54511 11.0171 6.5366 11.8332C6.46151 13.2059 6.46151 13.5658 6.46151 17.0068C6.46151 20.4068 6.47426 20.8191 6.5366 22.1833C6.54928 22.9911 6.69823 23.791 6.97718 24.5492C7.41022 25.6648 8.29481 26.5453 9.41243 26.9731C10.1691 27.2558 10.9691 27.4049 11.7768 27.4137C13.1482 27.493 13.5094 27.493 16.9548 27.493C20.4298 27.493 20.7897 27.476 22.1313 27.4137C22.9393 27.4038 23.7397 27.2548 24.4971 26.9731C25.6084 26.5415 26.4874 25.6631 26.9196 24.552C27.2021 23.7859 27.3511 22.9771 27.3602 22.1607H27.3758C27.4367 20.8063 27.4367 20.4451 27.4367 16.9842C27.4367 13.5233 27.4211 13.1592 27.3602 11.8063C27.3475 10.9994 27.1985 10.2005 26.9196 9.44325C26.4884 8.33056 25.6093 7.45042 24.4971 7.01792C23.7398 6.73564 22.9394 6.58657 22.1313 6.57734C20.7613 6.49942 20.4029 6.49942 16.9548 6.49942ZM17.0029 23.5504C14.3537 23.5521 11.9644 21.9577 10.9493 19.5107C9.9342 17.0638 10.4932 14.2462 12.3657 12.3722C14.2381 10.4981 17.0552 9.93664 19.503 10.9496C21.9509 11.9626 23.5474 14.3506 23.5479 16.9998C23.544 20.6138 20.6169 23.5434 17.0029 23.5504ZM17.0029 12.7469C14.6557 12.7469 12.7529 14.6497 12.7529 16.9969C12.7529 19.3441 14.6557 21.2469 17.0029 21.2469C19.3501 21.2469 21.2529 19.3441 21.2529 16.9969C21.2475 14.652 19.3479 12.7524 17.0029 12.7469ZM23.8029 11.7368C22.9606 11.7337 22.2799 11.0492 22.2814 10.2068C22.283 9.36453 22.9663 8.68251 23.8086 8.68251C24.6509 8.68251 25.3342 9.36451 25.3358 10.2068C25.3361 10.6132 25.1747 11.003 24.8871 11.2901C24.5994 11.5772 24.2093 11.738 23.8029 11.7368Z" fill="#333B48"/>
</svg>
