<svg width="22" height="22" viewBox="0 0 22 22" fill="none" xmlns="http://www.w3.org/2000/svg">
<path fill-rule="evenodd" clip-rule="evenodd" d="M3.40898 2.6998C3.2433 2.6998 3.10898 2.83412 3.10898 2.9998V10.4089C3.10898 10.5746 3.2433 10.7089 3.40898 10.7089H18.5908C18.7565 10.7089 18.8908 10.5746 18.8908 10.4089V2.9998C18.8908 2.83412 18.7565 2.6998 18.5908 2.6998H3.40898ZM1.70898 2.9998C1.70898 2.06092 2.4701 1.2998 3.40898 1.2998H18.5908C19.5297 1.2998 20.2908 2.06092 20.2908 2.9998V10.4089C20.2908 11.3478 19.5297 12.1089 18.5908 12.1089H14.5635V14.7998H16.1363C17.0751 14.7998 17.8363 15.5609 17.8363 16.4998V18.9998C17.8363 19.9387 17.0751 20.6998 16.1363 20.6998H5.86353C4.92465 20.6998 4.16353 19.9387 4.16353 18.9998V16.4998C4.16353 15.5609 4.92464 14.7998 5.86353 14.7998H7.43626V12.1089H3.40898C2.4701 12.1089 1.70898 11.3478 1.70898 10.4089V2.9998ZM8.83626 12.1089V16.1362C8.83626 16.3019 8.97057 16.4362 9.13626 16.4362H12.8635C13.0292 16.4362 13.1635 16.3019 13.1635 16.1362V12.1089H8.83626ZM7.43743 16.1998H5.86353C5.69784 16.1998 5.56353 16.3341 5.56353 16.4998V18.9998C5.56353 19.1655 5.69784 19.2998 5.86353 19.2998H16.1363C16.3019 19.2998 16.4363 19.1655 16.4363 18.9998V16.4998C16.4363 16.3341 16.3019 16.1998 16.1363 16.1998H14.5624C14.5289 17.1092 13.7811 17.8362 12.8635 17.8362H9.13626C8.21868 17.8362 7.47089 17.1092 7.43743 16.1998Z" fill="white"/>
</svg>
