<svg width="34" height="34" viewBox="0 0 34 34" fill="none" xmlns="http://www.w3.org/2000/svg">
<path d="M25.2985 9.70354C25.1264 9.61459 24.9589 9.51708 24.7965 9.41137C24.3244 9.09925 23.8915 8.73148 23.5072 8.31598C22.5457 7.21582 22.1866 6.09972 22.0543 5.31829H22.0597C21.9492 4.66967 21.9948 4.25 22.0017 4.25H17.6223V21.1843C17.6223 21.4117 17.6223 21.6364 17.6128 21.8585C17.6128 21.8861 17.6101 21.9116 17.6085 21.9413C17.6085 21.9536 17.6085 21.9663 17.6059 21.9791C17.6059 21.9822 17.6059 21.9854 17.6059 21.9886C17.5597 22.5962 17.3649 23.1832 17.0387 23.6978C16.7124 24.2125 16.2647 24.6391 15.7349 24.9401C15.1827 25.2542 14.5582 25.419 13.9229 25.4182C11.8825 25.4182 10.2288 23.7544 10.2288 21.6996C10.2288 19.6449 11.8825 17.9811 13.9229 17.9811C14.3091 17.9807 14.693 18.0415 15.0603 18.1611L15.0656 13.7021C13.9507 13.5581 12.8181 13.6467 11.7392 13.9623C10.6603 14.2779 9.65858 14.8137 8.79712 15.5358C8.04229 16.1917 7.4077 16.9742 6.92191 17.8483C6.73704 18.167 6.03954 19.4478 5.95508 21.5265C5.90196 22.7063 6.25628 23.9286 6.42521 24.4338V24.4445C6.53146 24.7419 6.94315 25.7571 7.61409 26.6129C8.15511 27.2994 8.7943 27.9024 9.51109 28.4026V28.392L9.52171 28.4026C11.6418 29.8433 13.9925 29.7487 13.9925 29.7487C14.3994 29.7323 15.7625 29.7487 17.3105 29.0151C19.0274 28.2018 20.0049 26.9901 20.0049 26.9901C20.6293 26.2661 21.1259 25.441 21.4732 24.5502C21.8695 23.5084 22.0017 22.259 22.0017 21.7597V12.7756C22.0549 12.8075 22.7625 13.2755 22.7625 13.2755C22.7625 13.2755 23.7819 13.9289 25.3724 14.3544C26.5134 14.6572 28.0508 14.7209 28.0508 14.7209V10.3734C27.5121 10.4318 26.4183 10.2619 25.2985 9.70354Z" fill="#333B48"/>
</svg>
