<svg width="34" height="34" viewBox="0 0 34 34" fill="none" xmlns="http://www.w3.org/2000/svg">
<path d="M17.2308 2.83301C9.54802 2.83301 3.29762 9.04082 3.29762 16.6725C3.29762 18.9736 3.86971 21.2293 4.95995 23.2352L2.90866 29.2911C2.73689 29.7979 2.86465 30.3572 3.23942 30.7405C3.51056 31.0187 3.87823 31.1663 4.253 31.1663C4.39638 31.1663 4.54117 31.145 4.68313 31.0996L11.0499 29.0781C12.9593 30.0151 15.083 30.5091 17.2308 30.5091C24.915 30.5091 31.1668 24.3027 31.1668 16.6725C31.1668 9.04082 24.915 2.83301 17.2308 2.83301ZM17.2279 27.6713C15.3484 27.6713 13.493 27.1986 11.8634 26.3029C11.6533 26.1879 11.4176 26.1283 11.1805 26.1283C11.0372 26.1283 10.8924 26.1496 10.749 26.195L6.49451 27.545L7.85163 23.5418C7.98649 23.1443 7.93822 22.7057 7.71961 22.3465C6.6819 20.643 6.13394 18.6812 6.13394 16.6739C6.13394 10.6094 11.111 5.67358 17.2279 5.67358C23.3463 5.67358 28.3248 10.6094 28.3248 16.6739C28.3248 22.7369 23.3477 27.6713 17.2279 27.6713Z" fill="#333B48"/>
<path d="M23.5498 19.5315C23.4717 19.4051 23.2687 19.327 22.9635 19.1751C22.6568 19.0261 21.1464 18.2879 20.8668 18.1857C20.7447 18.1417 20.6368 18.1062 20.5374 18.1062C20.4068 18.1062 20.2904 18.1658 20.1754 18.3376C19.971 18.6428 19.3819 19.327 19.2044 19.5315C19.1036 19.6479 19 19.7061 18.8751 19.7061C18.7814 19.7061 18.6721 19.6734 18.5415 19.6067C18.232 19.4576 17.244 19.134 16.0728 18.0991C15.1615 17.2914 14.5454 16.2948 14.3651 15.9896C14.1862 15.6873 14.3466 15.5212 14.5014 15.3707C14.6391 15.2301 14.8066 15.013 14.9627 14.8355C15.116 14.6581 15.1671 14.5317 15.2679 14.3287C15.3687 14.1257 15.319 13.9469 15.241 13.795C15.1657 13.6431 14.5525 12.1454 14.2941 11.535C14.1039 11.0807 13.9122 11.0225 13.7532 11.0225C13.6993 11.0225 13.6482 11.0296 13.6028 11.0296C13.4267 11.0296 13.2237 11.0026 13.0165 11.0026C12.8121 11.0026 12.4813 11.0793 12.1988 11.3859C11.9192 11.6883 11.1242 12.4251 11.1242 13.9227C11.1242 15.4218 12.2229 16.8669 12.3791 17.0699C12.531 17.2743 14.5014 20.4471 17.6188 21.6665C19.4259 22.3735 20.1868 22.5339 20.6155 22.5339C20.9278 22.5339 21.0641 22.4487 21.3011 22.4274C21.8619 22.3777 23.1154 21.6892 23.3723 20.9794C23.6278 20.2696 23.6278 19.6578 23.5498 19.5315Z" fill="#333B48"/>
</svg>
