<svg width="78" height="33" viewBox="0 0 78 33" fill="none" xmlns="http://www.w3.org/2000/svg">
<path d="M71.8077 29.1042C70.2885 29.1042 69.1427 28.5922 69.1427 27.6596V5.4296C69.1427 4.44993 70.031 3.9601 71.8077 3.9601H72.9092C74.4798 3.9601 75.5493 4.42171 75.5493 5.4296V27.6596C75.5493 28.6227 74.6693 29.1042 72.9092 29.1042H71.8077Z" fill="#0051FF"/>
<path d="M30.1443 29.1042C28.6252 29.1042 27.4793 28.5922 27.4793 27.6596V5.40469C27.4793 4.42503 28.3676 3.93521 30.1443 3.93521H31.2644C32.8351 3.93521 33.9045 4.39682 33.9045 5.40471V27.6596C33.9045 28.6227 33.0245 29.1042 31.2644 29.1042H30.1443Z" fill="#0051FF"/>
<path d="M17.9833 5.53415C18.9604 3.95999 18.9674 3.9601 20.9825 3.9601L21.6446 3.9601C23.8815 3.93521 24.6131 5.01304 24.0357 5.95264L15.5574 19.465V27.6596C15.5574 28.6227 14.8703 29.1042 13.1103 29.1042H12.6031C11.0839 29.1042 10.1673 28.5922 10.1673 27.6596V19.465L1.689 5.95265C1.11153 5.01304 1.84313 3.93521 4.08006 3.9601L4.74216 3.9601C6.75724 3.9601 6.76423 3.95999 7.74134 5.53415L12.8629 14.2964L17.9833 5.53415Z" fill="#0051FF"/>
<path d="M37.8859 27.6596V6.63776C37.8859 5.55682 38.7327 5.07065 40.1586 4.63959C41.5845 4.20852 46.0618 2.56633 50.9151 6.20872C55.5143 2.66792 65.5493 3.48076 65.5493 13.1333V27.6596C65.5493 28.6227 64.6693 29.1042 62.9092 29.1042H62.6669C61.1477 29.1042 60.0019 28.5922 60.0019 27.6596V15.1405C60.0019 12.4206 57.4313 10.8356 55.2682 11.3742C54.7624 11.5543 54.5462 11.7628 54.5462 12.4367V27.6596C54.5462 28.6227 53.6662 29.1042 51.9061 29.1042H51.6336C50.1144 29.1042 48.9686 28.5922 48.9686 27.6596V15.1405C48.9686 12.4206 46.3981 10.8356 44.2349 11.3742C43.7291 11.5543 43.513 11.7628 43.513 12.4367V27.6596C43.513 28.6227 42.6329 29.1042 40.8728 29.1042H40.5509C39.0318 29.1042 37.8859 28.5922 37.8859 27.6596Z" fill="#0051FF"/>
</svg>
