<svg width="34" height="34" viewBox="0 0 34 34" fill="none" xmlns="http://www.w3.org/2000/svg">
<path d="M17.0084 26.9333H16.9801C16.8923 26.9333 8.10467 26.9163 5.88759 26.3143C4.66844 25.9858 3.71634 25.0332 3.38859 23.8138C2.98991 21.5647 2.79739 19.2838 2.81342 16.9997C2.80312 14.7118 3.00085 12.4277 3.40417 10.1756C3.74093 8.95515 4.68885 7.9981 5.90601 7.64967C8.06217 7.08301 16.6075 7.08301 16.9702 7.08301H16.9999C17.0892 7.08301 25.8994 7.10001 28.0938 7.70209C29.3104 8.03219 30.2606 8.98289 30.59 10.1997C31.0014 12.4572 31.1945 14.7491 31.1666 17.0436C31.1765 19.3287 30.9783 21.61 30.5744 23.8592C30.2425 25.077 29.2897 26.0275 28.0712 26.3568C25.9178 26.9277 17.3711 26.9333 17.0084 26.9333ZM14.1751 12.7568L14.168 21.2568L21.5517 17.0068L14.1751 12.7568Z" fill="#333B48"/>
</svg>
